<svg width="120" height="120" viewBox="0 0 120 120" fill="none" xmlns="http://www.w3.org/2000/svg">
  <circle cx="60" cy="60" r="58" fill="#780000" stroke="#FFB703" stroke-width="3"/>
  <circle cx="60" cy="60" r="50" fill="#003049" stroke="#FFB703" stroke-width="1.5"/>
  <path d="M30 90L90 30M30 90L40 90M30 90L30 80" stroke="#FFB703" stroke-width="5" stroke-linecap="round"/>
  <path d="M90 90L30 30M90 90L80 90M90 90L90 80" stroke="#FFB703" stroke-width="5" stroke-linecap="round"/>
  <rect x="46" y="58" width="28" height="8" rx="2" fill="#FFB703"/>
  <path d="M44 42C44 32 52 26 60 26C68 26 76 32 76 42C76 52 68 58 60 58C52 58 44 52 44 42Z" fill="#FFB703"/>
  <circle cx="60" cy="42" r="6" fill="#003049"/>
  <path d="M25 96H95L88 108H32L25 96Z" fill="#FFB703"/>
  <text x="60" y="105" text-anchor="middle" fill="#780000" font-size="8" font-weight="900" font-family="sans-serif">INDIAN ARMY</text>
</svg>
